<mxfile host="app.diagrams.net" modified="2023-10-11T18:47:36.696Z" agent="Mozilla/5.0 (Windows NT 10.0; Win64; x64) AppleWebKit/537.36 (KHTML, like Gecko) Chrome/109.0.0.0 Safari/537.36 Edg/109.0.1518.61" version="22.0.4" etag="JASn1w2ZyIenYTicYjCW" type="github">
  <diagram name="PÃ¡gina-1" id="IShoV4XyDB_bVi-w6TAJ">
    <mxGraphModel>
      <root>
        <mxCell id="0" />
        <mxCell id="1" parent="0" />
      </root>
    </mxGraphModel>
  </diagram>
</mxfile>
